<?xml version="1.0" encoding="UTF-8" standalone="no"?>
<!-- Created with Inkscape (http://www.inkscape.org/) -->

<svg
   xmlns:ns0="http://www.iki.fi/pav/software/textext/"
   xmlns:dc="http://purl.org/dc/elements/1.1/"
   xmlns:cc="http://creativecommons.org/ns#"
   xmlns:rdf="http://www.w3.org/1999/02/22-rdf-syntax-ns#"
   xmlns:svg="http://www.w3.org/2000/svg"
   xmlns="http://www.w3.org/2000/svg"
   xmlns:sodipodi="http://sodipodi.sourceforge.net/DTD/sodipodi-0.dtd"
   xmlns:inkscape="http://www.inkscape.org/namespaces/inkscape"
   id="svg2"
   version="1.1"
   inkscape:version="0.48.5 r10040"
   width="283.10616"
   height="299.32373"
   xml:space="preserve"
   sodipodi:docname="histogram.svg"><sodipodi:namedview
     pagecolor="#ffffff"
     bordercolor="#666666"
     borderopacity="1"
     objecttolerance="10"
     gridtolerance="10"
     guidetolerance="10"
     inkscape:pageopacity="0"
     inkscape:pageshadow="2"
     inkscape:window-width="928"
     inkscape:window-height="1053"
     id="namedview4"
     showgrid="false"
     inkscape:zoom="2.2300564"
     inkscape:cx="120.28661"
     inkscape:cy="124.66002"
     inkscape:window-x="988"
     inkscape:window-y="600"
     inkscape:window-maximized="0"
     inkscape:current-layer="g12" /><metadata
     id="metadata8"><rdf:RDF><cc:Work
         rdf:about=""><dc:format>image/svg+xml</dc:format><dc:type
           rdf:resource="http://purl.org/dc/dcmitype/StillImage" /><dc:title /></cc:Work></rdf:RDF></metadata><defs
     id="defs6" /><g
     transform="matrix(1.25,0,0,-1.25,0,299.32373)"
     inkscape:label="histogram"
     inkscape:groupmode="layer"
     id="g10"><g
       id="g12"><g
         transform="matrix(1,0,0,-1,-16,239.45898)"
         id="g14"><path
           id="path16"
           style="fill:none;stroke:#000000;stroke-width:0.62112898;stroke-linecap:butt;stroke-linejoin:miter;stroke-miterlimit:4;stroke-opacity:1;stroke-dasharray:none"
           d="m 57.941,220.434 167.411,-1.145"
           inkscape:connector-curvature="0" /></g><g
         transform="matrix(-1,-0.00682668,-0.00682668,1,-16,239.45898)"
         id="g18"><path
           id="path20"
           style="fill:#000000;fill-opacity:1;fill-rule:evenodd;stroke:#000000;stroke-width:0.62111402;stroke-linecap:butt;stroke-linejoin:miter;stroke-miterlimit:4;stroke-opacity:1;stroke-dasharray:none"
           d="m -217.633,-220.818 2.486,-2.483 -8.697,2.484 8.694,2.485 -2.483,-2.486 z"
           inkscape:connector-curvature="0" /></g><g
         transform="matrix(1,0,0,-1,-16,239.45898)"
         id="g22"><path
           id="path24"
           style="fill:none;stroke:#000000;stroke-width:0.79348701;stroke-linecap:butt;stroke-linejoin:miter;stroke-miterlimit:4;stroke-opacity:1;stroke-dasharray:none"
           d="m 57.352,220.434 0,-208"
           inkscape:connector-curvature="0" /></g><g
         transform="matrix(0,-1,-1,0,-16,239.45898)"
         id="g26"><path
           id="path28"
           style="fill:#000000;fill-opacity:1;fill-rule:evenodd;stroke:#000000;stroke-width:0.79348701;stroke-linecap:butt;stroke-linejoin:miter;stroke-miterlimit:4;stroke-opacity:1;stroke-dasharray:none"
           d="m 20.367,-57.352 3.176,-3.171 -11.109,3.171 11.109,3.176 -3.176,-3.176 z"
           inkscape:connector-curvature="0" /></g><g
         transform="matrix(1,0,0,-1,-16,239.45898)"
         id="g30"><path
           id="path32"
           style="fill:none;stroke:#000000;stroke-width:1.632568;stroke-linecap:butt;stroke-linejoin:miter;stroke-miterlimit:4;stroke-opacity:1;stroke-dasharray:none"
           d="m 57.352,84.434 48,0 0,136 -48,0 0,-136 z"
           inkscape:connector-curvature="0" /></g><g
         transform="matrix(1,0,0,-1,-16,239.45898)"
         id="g40"
         style="fill:#808080"><path
           id="path42"
           style="fill:#808080;fill-opacity:1;fill-rule:nonzero;stroke:#000000;stroke-width:1.93978000000000006;stroke-linecap:butt;stroke-linejoin:miter;stroke-miterlimit:4;stroke-opacity:1;stroke-dasharray:none"
           d="m 105.352,28.434 48,0 0,192 -48,0 0,-192 z"
           inkscape:connector-curvature="0" /></g><g
         transform="matrix(1,0,0,-1,-16,239.45898)"
         id="g44"><path
           id="path46"
           style="fill:none;stroke:#000000;stroke-width:1.252123;stroke-linecap:butt;stroke-linejoin:miter;stroke-miterlimit:4;stroke-opacity:1;stroke-dasharray:none"
           d="m 153.352,140.434 48,0 0,80 -48,0 z"
           inkscape:connector-curvature="0"
           sodipodi:nodetypes="ccccc" /></g><g
         style="font-style:normal;font-variant:normal;font-weight:normal;font-stretch:normal;letter-spacing:normal;word-spacing:normal;text-anchor:start;fill:none;stroke:#000000;stroke-linecap:butt;stroke-linejoin:miter;stroke-miterlimit:10.43299961;stroke-opacity:1;stroke-dasharray:none;stroke-dashoffset:0"
         id="g5445"
         transform="matrix(0,2.2902518,-2.2902518,0,1526.3679,-379.56168)"
         xml:space="preserve"
         stroke-miterlimit="10.433"
         font-style="normal"
         font-variant="normal"
         font-weight="normal"
         font-stretch="normal"
         font-size-adjust="none"
         letter-spacing="normal"
         word-spacing="normal"
         ns0:text="$P(\\scath_1 \\cond D)$"
         ns0:preamble="/home/beaujean/workspace/bat/doc/manual/bat.sty"><path
           style="fill:#000000;stroke-width:0"
           inkscape:connector-curvature="0"
           d="m 225.27,663.56 0.03,0 0.03,0 0.05,-0.01 0.04,-0.01 0.05,0 0.04,-0.01 0.04,-0.01 0.04,-0.01 0.03,-0.01 0.04,0 0.03,-0.01 0.03,-0.01 0.03,-0.01 0.02,-0.01 0.03,-0.01 0.02,-0.01 0.02,-0.02 0.02,-0.01 0.02,-0.01 0.01,-0.01 0.02,-0.02 0.01,-0.01 0.01,-0.02 0.01,-0.01 0.01,-0.02 0.01,-0.02 0,-0.02 0.01,-0.01 0,-0.02 0.01,-0.03 0,-0.02 0,-0.02 0,-0.02 c 0,-0.14 -0.04,-0.35 -0.17,-0.8 l -1.17,-4.22 c -0.18,-0.6 -0.25,-0.66 -0.82,-0.74 v -0.16 h 2.44 v 0.16 c -0.63,0.09 -0.68,0.12 -0.68,0.46 0,0.12 0.02,0.22 0.12,0.58 l 0.53,1.91 0.09,0.34 0.7,2.47 c 0.06,0.2 0.18,0.27 0.46,0.27 0.39,0 0.77,-0.1 0.97,-0.24 0.26,-0.17 0.37,-0.47 0.37,-0.94 0,-0.64 -0.23,-1.1 -0.67,-1.36 -0.31,-0.17 -0.7,-0.25 -1.31,-0.25 -0.17,0 -0.25,0.01 -0.52,0.05 l -0.09,-0.34 c 0.25,-0.06 0.51,-0.07 0.91,-0.07 0.82,0 1.49,0.16 1.91,0.47 0.5,0.37 0.79,0.92 0.79,1.5 0,0.96 -0.75,1.48 -2.1,1.48 h -2.47 z"
           id="path5447" /><path
           style="fill:#000000;stroke-width:0"
           inkscape:connector-curvature="0"
           d="m 233.45,663.95 -0.07,-0.04 -0.06,-0.05 -0.06,-0.04 -0.07,-0.04 -0.05,-0.04 -0.06,-0.04 -0.05,-0.04 -0.06,-0.03 -0.05,-0.04 -0.05,-0.04 -0.04,-0.03 -0.05,-0.04 -0.04,-0.03 -0.05,-0.04 -0.08,-0.06 -0.08,-0.07 -0.07,-0.07 -0.07,-0.07 -0.07,-0.07 -0.07,-0.07 -0.07,-0.08 -0.06,-0.08 -0.07,-0.08 c -0.71,-0.87 -1.06,-1.86 -1.06,-3.02 0,-1.26 0.37,-2.24 1.25,-3.25 0.41,-0.48 0.66,-0.7 1.18,-1.01 l 0.12,0.16 c -0.8,0.62 -1.07,0.97 -1.34,1.71 -0.24,0.67 -0.35,1.43 -0.35,2.42 0,1.04 0.13,1.86 0.4,2.47 0.28,0.62 0.57,0.98 1.29,1.55 z"
           id="path5449" /><path
           style="fill:#000000;stroke-width:0"
           inkscape:connector-curvature="0"
           d="m 238.67,662.03 0,0.01 0,0.02 0,0.01 0,0.01 0,0.02 0,0.02 0,0.04 -0.01,0.05 0,0.05 -0.01,0.06 0,0.06 -0.01,0.07 -0.01,0.07 -0.01,0.07 -0.02,0.07 -0.02,0.07 -0.02,0.08 -0.02,0.07 -0.03,0.08 -0.03,0.07 -0.03,0.08 -0.04,0.07 -0.04,0.07 -0.05,0.06 -0.05,0.07 -0.03,0.03 -0.03,0.03 -0.03,0.03 -0.03,0.02 -0.03,0.03 -0.03,0.03 -0.04,0.02 -0.03,0.02 -0.04,0.02 -0.04,0.02 -0.04,0.02 -0.04,0.02 -0.05,0.01 -0.04,0.01 -0.05,0.02 -0.05,0.01 -0.05,0 -0.05,0.01 -0.05,0 -0.06,0 0,-0.21 c 0.39,0 0.55,-0.35 0.55,-0.91 h 0 c 0,-0.54 -0.14,-1.27 -0.34,-2.08 h -2.16 c 0.36,1.44 0.99,2.99 1.95,2.99 l 0,0.21 c -1.76,0 -3.01,-2.76 -3.01,-4.67 0,-0.35 0.06,-1.93 1.32,-1.93 l 0.14,0.21 c -0.54,0 -0.74,0.48 -0.74,1.15 0,0.48 0.11,1.08 0.25,1.68 h 2.15 c -0.3,-1.16 -0.65,-2.83 -1.66,-2.83 l -0.14,-0.21 c 1.98,0 2.9,3.37 2.9,4.9 z"
           id="path5451" /><path
           style="fill:#000000;stroke-width:0"
           inkscape:connector-curvature="0"
           d="m 241.01,656.63 v 2.52 c 0,0.43 0,0.87 0.02,0.97 0,0.04 -0.02,0.04 -0.04,0.04 -0.4,-0.25 -0.79,-0.43 -1.43,-0.73 0.02,-0.08 0.04,-0.15 0.11,-0.2 0.34,0.14 0.49,0.18 0.63,0.18 0.13,0 0.15,-0.17 0.15,-0.42 v -2.36 c 0,-0.61 -0.2,-0.64 -0.71,-0.66 -0.04,-0.05 -0.04,-0.2 0,-0.24 0.36,0 0.62,0.01 1.01,0.01 0.35,0 0.53,-0.01 0.89,-0.01 0.04,0.04 0.04,0.19 0,0.24 -0.51,0.02 -0.63,0.05 -0.63,0.66 z"
           id="path5453" /><polygon
           style="fill:#000000;stroke-width:0"
           points="246.13,655.62 246.13,663.96 245.57,663.96 245.57,655.62 "
           id="polygon5455" /><path
           style="fill:#000000;stroke-width:0"
           inkscape:connector-curvature="0"
           d="m 250.67,663.56 0.02,0 0.03,0 0.03,-0.01 0.03,0 0.02,0 0.03,0 0.05,-0.01 0.04,-0.01 0.05,0 0.04,-0.01 0.04,-0.01 0.03,-0.01 0.04,0 0.03,-0.01 0.03,-0.01 0.03,-0.01 0.02,-0.01 0.03,-0.01 0.02,-0.01 0.02,-0.01 0.02,-0.02 0.02,-0.01 0.01,-0.01 0.02,-0.02 0.01,-0.01 0.01,-0.02 0.01,-0.02 0.01,-0.01 0,-0.02 0.01,-0.02 0,-0.02 0.01,-0.02 0,-0.03 0,-0.02 0,-0.02 c 0,-0.15 -0.04,-0.39 -0.11,-0.64 l -1.22,-4.39 c -0.18,-0.58 -0.25,-0.64 -0.81,-0.74 v -0.16 h 2.52 l -0.1,0.3 c -0.46,0 -0.65,0.11 -0.65,0.37 0,0.13 0.05,0.35 0.22,0.94 l 1.21,4.3 c 0.06,0.21 0.21,0.28 0.6,0.28 0.57,0 1.07,-0.13 1.39,-0.36 0.48,-0.36 0.75,-0.99 0.75,-1.77 0,-1.07 -0.41,-2.19 -1.09,-2.86 -0.59,-0.6 -1.39,-0.9 -2.43,-0.9 l 0.1,-0.3 c 1.17,0 2.23,0.31 2.99,0.87 0.97,0.7 1.54,1.8 1.54,2.95 0,1.63 -1.14,2.67 -2.91,2.67 h -2.76 z"
           id="path5457" /><path
           style="fill:#000000;stroke-width:0"
           inkscape:connector-curvature="0"
           d="m 257.44,655.48 0.07,0.04 0.06,0.04 0.07,0.05 0.06,0.04 0.06,0.04 0.05,0.03 0.06,0.04 0.05,0.04 0.05,0.04 0.05,0.03 0.05,0.04 0.04,0.03 0.05,0.04 0.04,0.03 0.08,0.07 0.08,0.07 0.07,0.07 0.07,0.07 0.07,0.07 0.07,0.07 0.07,0.08 0.07,0.08 0.07,0.08 c 0.7,0.86 1.05,1.86 1.05,3.02 0,1.27 -0.37,2.23 -1.24,3.25 -0.41,0.47 -0.67,0.69 -1.19,1.01 l -0.12,-0.16 c 0.8,-0.63 1.07,-0.97 1.35,-1.72 0.23,-0.66 0.34,-1.42 0.34,-2.41 0,-1.03 -0.12,-1.86 -0.39,-2.46 -0.28,-0.63 -0.58,-0.99 -1.3,-1.56 z"
           id="path5459" /></g><g
         style="font-style:normal;font-variant:normal;font-weight:normal;font-stretch:normal;letter-spacing:normal;word-spacing:normal;text-anchor:start;fill:none;stroke:#000000;stroke-linecap:butt;stroke-linejoin:miter;stroke-miterlimit:10.43299961;stroke-opacity:1;stroke-dasharray:none;stroke-dashoffset:0"
         ns0:preamble="/home/beaujean/workspace/bat/doc/manual/bat.sty"
         ns0:text="$\\theta_1$"
         word-spacing="normal"
         letter-spacing="normal"
         font-size-adjust="none"
         font-stretch="normal"
         font-weight="normal"
         font-variant="normal"
         font-style="normal"
         stroke-miterlimit="10.433"
         xml:space="preserve"
         transform="matrix(2.2902518,0,0,2.2902518,-330.47732,-1501.3663)"
         id="content"><path
           id="path3122"
           d="m 228.07,662.03 0,0.01 0,0.02 0,0.01 0,0.01 0,0.02 0,0.02 0,0.04 -0.01,0.05 0,0.05 -0.01,0.06 0,0.06 -0.01,0.07 -0.01,0.07 -0.01,0.07 -0.02,0.07 -0.02,0.07 -0.02,0.08 -0.02,0.07 -0.03,0.08 -0.03,0.07 -0.03,0.08 -0.04,0.07 -0.04,0.07 -0.05,0.06 -0.05,0.07 -0.03,0.03 -0.03,0.03 -0.03,0.03 -0.03,0.02 -0.03,0.03 -0.03,0.03 -0.04,0.02 -0.03,0.02 -0.04,0.02 -0.04,0.02 -0.04,0.02 -0.04,0.02 -0.05,0.01 -0.04,0.01 -0.05,0.02 -0.05,0.01 -0.05,0 -0.05,0.01 -0.05,0 -0.05,0 -0.02,-0.21 c 0.4,0 0.56,-0.35 0.56,-0.91 h 0 c 0,-0.54 -0.14,-1.27 -0.34,-2.08 h -2.16 c 0.36,1.44 0.99,2.99 1.94,2.99 l 0.02,0.21 c -1.77,0 -3.02,-2.76 -3.02,-4.67 0,-0.35 0.06,-1.93 1.32,-1.93 l 0.14,0.21 c -0.54,0 -0.74,0.48 -0.74,1.15 0,0.48 0.11,1.08 0.25,1.68 h 2.16 c -0.31,-1.16 -0.66,-2.83 -1.67,-2.83 l -0.14,-0.21 c 1.98,0 2.9,3.37 2.9,4.9 z"
           inkscape:connector-curvature="0"
           style="fill:#000000;stroke-width:0" /><path
           id="path3124"
           d="m 230.41,656.63 v 2.52 c 0,0.43 0,0.87 0.02,0.97 0,0.04 -0.02,0.04 -0.04,0.04 -0.4,-0.25 -0.79,-0.43 -1.43,-0.73 0.02,-0.08 0.05,-0.15 0.11,-0.2 0.33,0.14 0.5,0.18 0.63,0.18 0.13,0 0.15,-0.17 0.15,-0.42 v -2.36 c 0,-0.61 -0.2,-0.64 -0.71,-0.66 -0.04,-0.05 -0.04,-0.2 0,-0.24 0.36,0 0.62,0.01 1.01,0.01 0.35,0 0.53,-0.01 0.89,-0.01 0.04,0.04 0.04,0.19 0,0.24 -0.51,0.02 -0.63,0.05 -0.63,0.66 z"
           inkscape:connector-curvature="0"
           style="fill:#000000;stroke-width:0" /></g><g
         id="g3204"
         transform="matrix(2.2902518,0,0,2.2902518,-429.67732,-1501.3663)"
         xml:space="preserve"
         stroke-miterlimit="10.433"
         font-style="normal"
         font-variant="normal"
         font-weight="normal"
         font-stretch="normal"
         font-size-adjust="none"
         letter-spacing="normal"
         word-spacing="normal"
         ns0:text="$a$"
         ns0:preamble="/home/beaujean/workspace/bat/doc/manual/bat.sty"
         style="font-style:normal;font-variant:normal;font-weight:normal;font-stretch:normal;letter-spacing:normal;word-spacing:normal;text-anchor:start;fill:none;stroke:#000000;stroke-linecap:butt;stroke-linejoin:miter;stroke-miterlimit:10.43299961;stroke-opacity:1;stroke-dasharray:none;stroke-dashoffset:0"><path
           d="m 228.28,658.33 -0.02,-0.02 -0.01,-0.01 -0.01,-0.01 -0.01,-0.01 -0.02,-0.02 -0.01,-0.01 -0.01,-0.01 -0.01,-0.01 -0.01,-0.01 -0.01,-0.01 -0.01,-0.01 -0.01,0 -0.01,-0.01 -0.01,-0.01 0,-0.01 -0.01,-0.01 -0.01,0 -0.01,-0.01 -0.01,-0.02 -0.02,-0.01 -0.01,-0.01 -0.01,-0.02 -0.02,-0.01 -0.01,-0.02 -0.01,-0.01 c -0.3,-0.31 -0.43,-0.41 -0.52,-0.41 -0.08,0 -0.14,0.06 -0.14,0.13 0,0.2 0.42,1.9 0.89,3.61 0.03,0.1 0.04,0.12 0.06,0.21 l -0.07,0.03 -0.61,-0.07 -0.03,-0.03 -0.11,-0.48 c -0.08,0.37 -0.37,0.58 -0.79,0.58 l 0.06,-0.22 c 0.33,-0.02 0.55,-0.26 0.55,-0.61 0,-0.83 -0.5,-2.01 -1.18,-2.74 -0.24,-0.27 -0.58,-0.44 -0.87,-0.44 -0.34,0 -0.57,0.29 -0.57,0.75 0,0.53 0.37,1.56 0.8,2.17 0.4,0.58 0.87,0.9 1.27,0.87 h 0 l -0.06,0.22 c -1.32,0 -2.85,-1.82 -2.85,-3.39 0,-0.7 0.38,-1.1 1.02,-1.1 0.69,0 1.12,0.32 2,1.55 -0.2,-0.77 -0.23,-0.9 -0.23,-1.14 0,-0.28 0.12,-0.4 0.39,-0.4 0.4,0 0.65,0.18 1.39,1.09 z"
           id="path3206"
           inkscape:connector-curvature="0"
           style="fill:#000000;stroke-width:0" /></g><g
         style="font-style:normal;font-variant:normal;font-weight:normal;font-stretch:normal;letter-spacing:normal;word-spacing:normal;text-anchor:start;fill:none;stroke:#000000;stroke-linecap:butt;stroke-linejoin:miter;stroke-miterlimit:10.43299961;stroke-opacity:1;stroke-dasharray:none;stroke-dashoffset:0"
         ns0:preamble="/home/beaujean/workspace/bat/doc/manual/bat.sty"
         ns0:text="$b$"
         word-spacing="normal"
         letter-spacing="normal"
         font-size-adjust="none"
         font-stretch="normal"
         font-weight="normal"
         font-variant="normal"
         font-style="normal"
         stroke-miterlimit="10.433"
         xml:space="preserve"
         transform="matrix(2.2902518,0,0,2.2902518,-378.47732,-1501.3663)"
         id="g3275"><path
           id="path3277"
           d="m 224.76,663.62 0.03,0 0.03,0 0.02,0 0.03,0 0.02,0 0.03,0 0.02,0 0.02,-0.01 0.02,0 0.02,0 0.02,0 0.02,0 0.02,0 0.02,0 0.02,-0.01 0.01,0 0.02,0 0.02,0 0.01,0 0.02,0 0.01,-0.01 0.01,0 0.02,0 0.01,0 0.01,-0.01 0.01,0 0.02,0 0.02,-0.01 0.02,-0.01 0.01,0 0.02,-0.01 0.01,-0.01 0.01,-0.01 0.01,-0.01 0.01,-0.01 0.01,-0.01 0,-0.01 0.01,-0.02 0,-0.01 0.01,-0.02 0,-0.01 0,-0.02 0,-0.02 0,-0.02 0,-0.02 c 0,-0.08 -0.03,-0.2 -0.09,-0.42 -0.02,-0.07 -0.04,-0.14 -0.05,-0.19 l -0.02,-0.07 -1.35,-4.98 v -0.04 c 0,-0.23 0.77,-0.52 1.32,-0.52 1.51,0 3.16,1.73 3.16,3.29 0,0.7 -0.49,1.2 -1.16,1.2 -0.69,0 -1.21,-0.41 -1.92,-1.5 l 0.17,-0.13 c 0.44,0.76 0.89,1.14 1.37,1.14 h 0 c 0.42,0 0.69,-0.33 0.69,-0.85 0,-0.66 -0.51,-1.72 -1.09,-2.34 -0.37,-0.38 -0.8,-0.59 -1.23,-0.59 -0.31,0 -0.45,0.11 -0.45,0.34 0,0.6 0.29,1.56 0.71,2.3 l -0.17,0.13 c 0.52,1.88 0.59,2.15 1.04,3.85 l -0.05,0.05 c -0.5,-0.09 -0.86,-0.15 -1.53,-0.23 z"
           inkscape:connector-curvature="0"
           style="fill:#000000;stroke-width:0" /></g><path
         style="fill:none;stroke:#ff5555;stroke-width:2;stroke-linecap:butt;stroke-linejoin:miter;stroke-miterlimit:4;stroke-opacity:1;stroke-dasharray:none"
         d="M 52.91346,273.76384 66.366034,174.66321 85.199639,97.983531 115.69214,38.792203 c 0,0 15.69467,-12.107318 27.80199,-13.452575 30.94092,2.242096 47.98085,50.671365 47.98085,50.671365 l 36.77037,89.235407 c 0,0 19.28203,60.98501 26.90515,89.68383 5.12015,10.1932 9.86522,16.59151 9.86522,16.59151"
         id="path3316"
         inkscape:connector-curvature="0"
         transform="matrix(0.8,0,0,-0.8,0,239.45898)"
         sodipodi:nodetypes="ccccccccc" /></g></g></svg>