<?xml version="1.0" encoding="UTF-8"?>
<svg xmlns="http://www.w3.org/2000/svg" xmlns:xlink="http://www.w3.org/1999/xlink" width="391pt" height="275pt" viewBox="0 0 391 275" version="1.1">
<g id="surface1">
<path style=" stroke:none;fill-rule:nonzero;fill:rgb(0%,0%,0%);fill-opacity:1;" d="M 118.425781 129.269531 L 121.914062 191.820312 L 116.683594 256.378906 L 164.617188 251.925781 L 190.328125 251.480469 L 204.929688 226.101562 L 201.222656 197.832031 L 189.023438 187.367188 L 178.347656 186.476562 L 191.417969 180.46875 L 195.339844 155.757812 L 184.664062 139.285156 L 165.054688 125.484375 L 142.828125 127.933594 L 118.425781 129.269531 M 143.703125 200.726562 L 171.589844 198.945312 L 179.871094 210.742188 L 180.742188 222.316406 L 168.976562 235.007812 L 141.304688 235.230469 L 143.703125 200.726562 M 141.304688 180.023438 L 139.996094 148.855469 L 162.222656 148.855469 L 170.066406 157.761719 L 171.589844 167.109375 L 162.65625 180.914062 L 141.304688 180.023438 M 115.15625 138.617188 L 116.246094 204.066406 L 119.296875 191.375 L 115.15625 138.617188 M 142.828125 151.972656 L 143.921875 177.128906 L 148.277344 177.351562 L 142.828125 151.972656 M 207.324219 228.550781 L 194.035156 251.703125 L 200.132812 248.585938 L 207.324219 228.550781 M 143.703125 233.003906 L 166.363281 233.003906 L 144.355469 228.773438 L 143.703125 233.003906 M 140.867188 256.601562 L 176.382812 256.15625 L 168.757812 253.707031 L 140.867188 256.601562 M 198.390625 157.09375 L 194.25 180.691406 L 199.046875 173.789062 L 198.390625 157.09375 M 153.941406 202.726562 L 173.117188 204.730469 L 170.9375 201.394531 L 153.941406 202.726562 "/>
<path style="fill:none;stroke-width:10.1006;stroke-linecap:butt;stroke-linejoin:miter;stroke:rgb(10.205078%,7.446289%,4.704285%);stroke-opacity:1;stroke-miterlimit:10;" d="M 1197.088204 -1441.886724 L 1232.348941 -822.974587 L 1179.477578 -184.235928 L 1664.006699 -228.294867 L 1923.901628 -232.70076 L 2071.499203 -483.79806 L 2034.027267 -763.495021 L 1910.713401 -867.033526 L 1802.798962 -875.845313 L 1934.91814 -935.286232 L 1974.561791 -1179.77469 L 1866.647351 -1342.754113 L 1668.429098 -1479.298174 L 1443.794906 -1455.065758 L 1197.088204 -1441.886724 M 1452.560733 -734.856711 L 1734.488687 -752.480286 L 1818.198388 -635.762748 L 1827.003701 -521.248157 L 1708.072749 -395.680183 L 1428.355995 -393.477237 L 1452.560733 -734.856711 M 1428.355995 -939.692125 L 1415.128282 -1248.066045 L 1639.80196 -1248.066045 L 1719.089261 -1159.948168 L 1734.488687 -1067.463046 L 1644.184873 -930.880338 L 1428.355995 -939.692125 M 1164.078152 -1349.362954 L 1175.055179 -701.851156 L 1205.893517 -827.380481 L 1164.078152 -1349.362954 M 1443.794906 -1217.224788 L 1454.771933 -968.330435 L 1498.837983 -966.127488 L 1443.794906 -1217.224788 M 2095.703942 -459.565644 L 1961.373564 -230.497813 L 2023.010754 -261.33907 L 2095.703942 -459.565644 M 1452.560733 -415.506706 L 1681.65681 -415.506706 L 1459.194332 -457.362697 L 1452.560733 -415.506706 M 1423.933595 -182.032981 L 1782.937651 -186.438875 L 1705.861549 -210.671291 L 1423.933595 -182.032981 M 2005.400129 -1166.557009 L 1963.545278 -933.083285 L 2011.994242 -1001.374639 L 2005.400129 -1166.557009 M 1556.092259 -715.068837 L 1749.927599 -695.242315 L 1727.894574 -728.24787 L 1556.092259 -715.068837 " transform="matrix(0.0989282,0,0,0.101072,0,275)"/>
<path style=" stroke:none;fill-rule:nonzero;fill:rgb(0%,0%,0%);fill-opacity:1;" d="M 247.808594 127.265625 L 230.375 200.28125 L 210.113281 255.042969 L 233.425781 257.042969 L 241.488281 228.550781 L 243.015625 235.007812 L 285.285156 231.222656 L 288.335938 254.597656 L 310.121094 253.484375 L 276.132812 125.929688 L 256.085938 129.269531 L 247.808594 127.265625 M 258.484375 162.660156 L 266.328125 159.765625 L 273.082031 204.953125 L 277.441406 209.40625 L 246.9375 212.746094 L 258.484375 162.660156 M 245.191406 127.710938 L 241.269531 125.707031 L 229.070312 196.050781 L 245.191406 127.710938 M 244.539062 237.234375 L 245.191406 242.796875 L 279.617188 234.5625 L 244.539062 237.234375 M 269.8125 202.953125 L 264.585938 165.554688 L 266.761719 200.28125 L 269.8125 202.953125 M 288.117188 256.824219 L 312.085938 258.824219 L 311.210938 255.710938 L 288.117188 256.824219 "/>
<path style="fill:none;stroke-width:10.1006;stroke-linecap:butt;stroke-linejoin:miter;stroke:rgb(10.205078%,7.446289%,4.704285%);stroke-opacity:1;stroke-miterlimit:10;" d="M 2504.933818 -1461.674598 L 2328.709104 -739.262605 L 2123.896738 -197.45361 L 2359.547442 -177.665736 L 2441.045943 -459.565644 L 2456.484855 -395.680183 L 2883.759699 -433.130281 L 2914.598037 -201.859504 L 3134.849315 -212.874238 L 2791.244686 -1474.89228 L 2588.604033 -1441.886724 L 2504.933818 -1461.674598 M 2612.848258 -1111.483336 L 2692.135559 -1140.121646 L 2760.406348 -693.039368 L 2804.472398 -648.98043 L 2496.128505 -615.936226 L 2612.848258 -1111.483336 M 2478.478394 -1457.268704 L 2438.834743 -1477.095227 L 2315.520878 -781.118596 L 2478.478394 -1457.268704 M 2471.884281 -373.650714 L 2478.478394 -318.61569 L 2826.465937 -400.086077 L 2471.884281 -373.650714 M 2727.35681 -712.86589 L 2674.524933 -1082.845026 L 2696.518472 -739.262605 L 2727.35681 -712.86589 M 2912.386837 -179.868683 L 3154.631655 -160.042161 L 3145.826342 -190.844769 L 2912.386837 -179.868683 " transform="matrix(0.0989282,0,0,0.101072,0,275)"/>
<path style=" stroke:none;fill-rule:nonzero;fill:rgb(0%,0%,0%);fill-opacity:1;" d="M 302.851562 127.265625 L 300.890625 149.746094 L 343.160156 150.636719 L 332.921875 157.09375 L 337.277344 200.28125 L 333.136719 253.484375 L 359.285156 253.484375 L 355.363281 198.5 L 357.757812 148.636719 L 388.046875 149.746094 L 390.441406 125.484375 L 349.042969 128.824219 L 302.851562 127.265625 M 303.285156 124.148438 L 346.429688 126.375 L 303.503906 119.027344 L 303.285156 124.148438 M 357.976562 198.5 L 361.679688 252.148438 L 365.601562 250.367188 L 357.976562 198.5 M 330.304688 160.210938 L 325.730469 163.328125 L 333.355469 198.054688 L 330.304688 160.210938 M 361.460938 151.085938 L 384.558594 158.207031 L 386.953125 152.863281 L 361.460938 151.085938 "/>
<path style="fill:none;stroke-width:10.1006;stroke-linecap:butt;stroke-linejoin:miter;stroke:rgb(10.205078%,7.446289%,4.704285%);stroke-opacity:1;stroke-miterlimit:10;" d="M 3061.326927 -1461.674598 L 3041.505102 -1239.254257 L 3468.779946 -1230.442469 L 3365.24842 -1166.557009 L 3409.31447 -739.262605 L 3367.45962 -212.874238 L 3631.776948 -212.874238 L 3592.133297 -756.88618 L 3616.338036 -1250.268991 L 3922.470729 -1239.254257 L 3946.714953 -1479.298174 L 3528.245422 -1446.25397 L 3061.326927 -1461.674598 M 3065.749326 -1492.515855 L 3501.829483 -1470.486386 L 3067.92104 -1543.183634 L 3065.749326 -1492.515855 M 3618.549236 -756.88618 L 3655.981687 -226.09192 L 3695.625337 -243.715495 L 3618.549236 -756.88618 M 3338.832482 -1135.715752 L 3292.594718 -1104.874495 L 3369.670819 -761.292074 L 3338.832482 -1135.715752 M 3653.770487 -1226.036575 L 3887.249477 -1155.542274 L 3911.493702 -1208.413 L 3653.770487 -1226.036575 " transform="matrix(0.0989282,0,0,0.101072,0,275)"/>
<path style=" stroke:none;fill-rule:nonzero;fill:rgb(0%,0%,0%);fill-opacity:1;" d="M 129.777344 271.695312 C 129.777344 272.140625 129.664062 272.5625 129.441406 272.957031 C 128.773438 274.125 127.507812 274.707031 125.640625 274.707031 L 118.191406 274.707031 L 118.191406 264.324219 L 125.640625 264.324219 C 127.414062 264.324219 128.65625 264.875 129.363281 265.980469 C 129.640625 266.425781 129.777344 266.902344 129.777344 267.410156 C 129.777344 268.269531 129.410156 268.996094 128.679688 269.582031 C 129.410156 270.152344 129.777344 270.855469 129.777344 271.695312 M 128.027344 267.394531 C 128.027344 266.957031 127.773438 266.625 127.269531 266.390625 C 126.871094 266.21875 126.421875 266.132812 125.914062 266.132812 L 120.003906 266.132812 L 120.003906 272.898438 L 125.914062 272.898438 C 126.410156 272.898438 126.851562 272.820312 127.238281 272.667969 C 127.765625 272.445312 128.027344 272.125 128.027344 271.710938 C 128.027344 271.285156 127.765625 270.960938 127.238281 270.738281 C 126.84375 270.578125 126.402344 270.496094 125.914062 270.496094 L 121.066406 270.496094 L 121.066406 268.6875 L 125.914062 268.6875 C 126.421875 268.6875 126.871094 268.59375 127.269531 268.414062 C 127.773438 268.179688 128.027344 267.839844 128.027344 267.394531 "/>
<path style=" stroke:none;fill-rule:nonzero;fill:rgb(0%,0%,0%);fill-opacity:1;" d="M 145 274.722656 L 142.675781 274.707031 L 140.925781 271.800781 L 136.003906 271.800781 L 137.097656 270.007812 L 139.847656 270.007812 L 138.039062 267.015625 L 133.355469 274.707031 L 131.03125 274.707031 L 136.671875 265.328125 C 136.8125 265.085938 137.011719 264.859375 137.265625 264.660156 C 137.566406 264.425781 137.839844 264.308594 138.085938 264.308594 C 138.347656 264.308594 138.621094 264.421875 138.90625 264.644531 C 139.148438 264.835938 139.347656 265.0625 139.496094 265.328125 L 145 274.722656 "/>
<path style=" stroke:none;fill-rule:nonzero;fill:rgb(0%,0%,0%);fill-opacity:1;" d="M 154.15625 264.339844 L 149.003906 271.285156 L 149.003906 274.722656 L 147.210938 274.722656 L 147.210938 271.253906 L 141.921875 264.339844 L 144.246094 264.339844 L 148.152344 269.445312 L 151.816406 264.339844 L 154.15625 264.339844 "/>
<path style=" stroke:none;fill-rule:nonzero;fill:rgb(0%,0%,0%);fill-opacity:1;" d="M 163.960938 270.359375 L 158.03125 270.359375 L 158.03125 268.550781 L 163.960938 268.550781 L 163.960938 270.359375 M 164.433594 274.722656 L 155.464844 274.722656 L 155.464844 264.339844 L 164.433594 264.339844 L 164.433594 266.148438 L 157.273438 266.148438 L 157.273438 272.914062 L 164.433594 272.914062 L 164.433594 274.722656 "/>
<path style=" stroke:none;fill-rule:nonzero;fill:rgb(0%,0%,0%);fill-opacity:1;" d="M 177.558594 271.515625 C 177.558594 272.496094 177.210938 273.289062 176.511719 273.886719 C 175.84375 274.441406 175.007812 274.722656 174.003906 274.722656 L 166.085938 274.722656 L 166.085938 272.914062 L 174.003906 272.914062 C 174.5 272.914062 174.929688 272.800781 175.296875 272.578125 C 175.710938 272.304688 175.917969 271.933594 175.917969 271.46875 C 175.917969 271.003906 175.703125 270.644531 175.28125 270.390625 C 174.925781 270.175781 174.5 270.070312 174.003906 270.070312 L 169.109375 270.070312 C 168.207031 270.070312 167.453125 269.820312 166.84375 269.324219 C 166.195312 268.789062 165.871094 268.078125 165.871094 267.199219 C 165.871094 266.324219 166.195312 265.621094 166.84375 265.085938 C 167.453125 264.589844 168.207031 264.339844 169.109375 264.339844 L 176.9375 264.339844 L 176.9375 266.148438 L 169.109375 266.148438 C 168.765625 266.148438 168.46875 266.246094 168.226562 266.4375 C 167.984375 266.628906 167.863281 266.886719 167.863281 267.210938 C 167.863281 267.546875 167.984375 267.804688 168.226562 267.988281 C 168.46875 268.167969 168.765625 268.261719 169.109375 268.261719 L 174.003906 268.261719 C 175.007812 268.261719 175.84375 268.550781 176.511719 269.128906 C 177.210938 269.734375 177.558594 270.53125 177.558594 271.515625 "/>
<path style=" stroke:none;fill-rule:nonzero;fill:rgb(0%,0%,0%);fill-opacity:1;" d="M 179.414062 274.722656 L 181.222656 274.722656 L 181.222656 264.339844 L 179.414062 264.339844 Z M 179.414062 274.722656 "/>
<path style=" stroke:none;fill-rule:nonzero;fill:rgb(0%,0%,0%);fill-opacity:1;" d="M 197.011719 274.722656 L 194.6875 274.707031 L 192.9375 271.800781 L 188.015625 271.800781 L 189.109375 270.007812 L 191.859375 270.007812 L 190.050781 267.015625 L 185.371094 274.707031 L 183.042969 274.707031 L 188.683594 265.328125 C 188.824219 265.085938 189.023438 264.859375 189.277344 264.660156 C 189.578125 264.425781 189.855469 264.308594 190.097656 264.308594 C 190.359375 264.308594 190.632812 264.421875 190.917969 264.644531 C 191.160156 264.835938 191.359375 265.0625 191.511719 265.328125 L 197.011719 274.722656 "/>
<path style=" stroke:none;fill-rule:nonzero;fill:rgb(0%,0%,0%);fill-opacity:1;" d="M 208.253906 273.824219 C 208.253906 274.492188 208.027344 274.828125 207.570312 274.828125 C 207.234375 274.828125 206.859375 274.621094 206.445312 274.203125 L 199.789062 267.515625 L 199.789062 274.722656 L 197.992188 274.722656 L 197.992188 265.238281 C 197.992188 264.992188 198.058594 264.785156 198.191406 264.613281 C 198.324219 264.429688 198.511719 264.339844 198.753906 264.339844 C 199.089844 264.339844 199.433594 264.515625 199.789062 264.871094 L 206.445312 271.542969 L 206.445312 264.339844 L 208.253906 264.339844 L 208.253906 273.824219 "/>
<path style=" stroke:none;fill-rule:nonzero;fill:rgb(0%,0%,0%);fill-opacity:1;" d="M 228.867188 274.722656 L 226.542969 274.707031 L 224.792969 271.800781 L 219.867188 271.800781 L 220.964844 270.007812 L 223.714844 270.007812 L 221.90625 267.015625 L 217.222656 274.707031 L 214.898438 274.707031 L 220.539062 265.328125 C 220.679688 265.085938 220.878906 264.859375 221.132812 264.660156 C 221.433594 264.425781 221.707031 264.308594 221.953125 264.308594 C 222.214844 264.308594 222.488281 264.421875 222.773438 264.644531 C 223.015625 264.835938 223.214844 265.0625 223.363281 265.328125 L 228.867188 274.722656 "/>
<path style=" stroke:none;fill-rule:nonzero;fill:rgb(0%,0%,0%);fill-opacity:1;" d="M 240.109375 273.824219 C 240.109375 274.492188 239.878906 274.828125 239.425781 274.828125 C 239.089844 274.828125 238.714844 274.621094 238.300781 274.203125 L 231.640625 267.515625 L 231.640625 274.722656 L 229.847656 274.722656 L 229.847656 265.238281 C 229.847656 264.992188 229.914062 264.785156 230.046875 264.613281 C 230.179688 264.429688 230.363281 264.339844 230.609375 264.339844 C 230.941406 264.339844 231.289062 264.515625 231.640625 264.871094 L 238.300781 271.542969 L 238.300781 264.339844 L 240.109375 264.339844 L 240.109375 273.824219 "/>
<path style=" stroke:none;fill-rule:nonzero;fill:rgb(0%,0%,0%);fill-opacity:1;" d="M 255.914062 274.722656 L 253.585938 274.707031 L 251.839844 271.800781 L 246.914062 271.800781 L 248.007812 270.007812 L 250.761719 270.007812 L 248.949219 267.015625 L 244.269531 274.707031 L 241.945312 274.707031 L 247.582031 265.328125 C 247.726562 265.085938 247.921875 264.859375 248.175781 264.660156 C 248.480469 264.425781 248.753906 264.308594 248.996094 264.308594 C 249.261719 264.308594 249.535156 264.421875 249.816406 264.644531 C 250.0625 264.835938 250.257812 265.0625 250.410156 265.328125 L 255.914062 274.722656 "/>
<path style=" stroke:none;fill-rule:nonzero;fill:rgb(0%,0%,0%);fill-opacity:1;" d="M 265.285156 274.722656 L 256.332031 274.722656 L 256.332031 264.339844 L 258.140625 264.339844 L 258.140625 272.914062 L 265.285156 272.914062 L 265.285156 274.722656 "/>
<path style=" stroke:none;fill-rule:nonzero;fill:rgb(0%,0%,0%);fill-opacity:1;" d="M 273.292969 264.339844 L 268.140625 271.285156 L 268.140625 274.722656 L 266.347656 274.722656 L 266.347656 271.253906 L 261.054688 264.339844 L 263.382812 264.339844 L 267.289062 269.445312 L 270.953125 264.339844 L 273.292969 264.339844 "/>
<path style=" stroke:none;fill-rule:nonzero;fill:rgb(0%,0%,0%);fill-opacity:1;" d="M 285.710938 271.515625 C 285.710938 272.496094 285.363281 273.289062 284.660156 273.886719 C 283.992188 274.441406 283.15625 274.722656 282.152344 274.722656 L 274.234375 274.722656 L 274.234375 272.914062 L 282.152344 272.914062 C 282.652344 272.914062 283.082031 272.800781 283.445312 272.578125 C 283.863281 272.304688 284.070312 271.933594 284.070312 271.46875 C 284.070312 271.003906 283.855469 270.644531 283.429688 270.390625 C 283.078125 270.175781 282.652344 270.070312 282.152344 270.070312 L 277.261719 270.070312 C 276.359375 270.070312 275.601562 269.820312 274.996094 269.324219 C 274.347656 268.789062 274.023438 268.078125 274.023438 267.199219 C 274.023438 266.324219 274.347656 265.621094 274.996094 265.085938 C 275.601562 264.589844 276.359375 264.339844 277.261719 264.339844 L 285.089844 264.339844 L 285.089844 266.148438 L 277.261719 266.148438 C 276.914062 266.148438 276.621094 266.246094 276.378906 266.4375 C 276.136719 266.628906 276.015625 266.886719 276.015625 267.210938 C 276.015625 267.546875 276.136719 267.804688 276.378906 267.988281 C 276.621094 268.167969 276.914062 268.261719 277.261719 268.261719 L 282.152344 268.261719 C 283.15625 268.261719 283.992188 268.550781 284.660156 269.128906 C 285.363281 269.734375 285.710938 270.53125 285.710938 271.515625 "/>
<path style=" stroke:none;fill-rule:nonzero;fill:rgb(0%,0%,0%);fill-opacity:1;" d="M 287.566406 274.722656 L 289.375 274.722656 L 289.375 264.339844 L 287.566406 264.339844 Z M 287.566406 274.722656 "/>
<path style=" stroke:none;fill-rule:nonzero;fill:rgb(0%,0%,0%);fill-opacity:1;" d="M 302.929688 271.515625 C 302.929688 272.496094 302.578125 273.289062 301.882812 273.886719 C 301.210938 274.441406 300.375 274.722656 299.371094 274.722656 L 291.453125 274.722656 L 291.453125 272.914062 L 299.371094 272.914062 C 299.871094 272.914062 300.300781 272.800781 300.664062 272.578125 C 301.078125 272.304688 301.289062 271.933594 301.289062 271.46875 C 301.289062 271.003906 301.074219 270.644531 300.648438 270.390625 C 300.296875 270.175781 299.871094 270.070312 299.371094 270.070312 L 294.480469 270.070312 C 293.578125 270.070312 292.820312 269.820312 292.214844 269.324219 C 291.566406 268.789062 291.242188 268.078125 291.242188 267.199219 C 291.242188 266.324219 291.566406 265.621094 292.214844 265.085938 C 292.820312 264.589844 293.578125 264.339844 294.480469 264.339844 L 302.308594 264.339844 L 302.308594 266.148438 L 294.480469 266.148438 C 294.132812 266.148438 293.839844 266.246094 293.597656 266.4375 C 293.355469 266.628906 293.230469 266.886719 293.230469 267.210938 C 293.230469 267.546875 293.355469 267.804688 293.597656 267.988281 C 293.839844 268.167969 294.132812 268.261719 294.480469 268.261719 L 299.371094 268.261719 C 300.375 268.261719 301.210938 268.550781 301.882812 269.128906 C 302.578125 269.734375 302.929688 270.53125 302.929688 271.515625 "/>
<path style=" stroke:none;fill-rule:nonzero;fill:rgb(0%,0%,0%);fill-opacity:1;" d="M 323.476562 266.148438 L 319.390625 266.148438 L 319.390625 274.722656 L 317.59375 274.722656 L 317.59375 266.148438 L 313.492188 266.148438 L 313.492188 264.339844 L 323.476562 264.339844 L 323.476562 266.148438 "/>
<path style=" stroke:none;fill-rule:nonzero;fill:rgb(0%,0%,0%);fill-opacity:1;" d="M 336.910156 269.417969 C 336.910156 270.945312 336.417969 272.214844 335.4375 273.214844 C 334.453125 274.21875 333.199219 274.722656 331.679688 274.722656 L 328.777344 274.722656 C 327.269531 274.722656 326.015625 274.21875 325.023438 273.214844 C 324.039062 272.214844 323.550781 270.945312 323.550781 269.417969 C 323.550781 267.894531 324.035156 266.671875 325.007812 265.738281 C 325.992188 264.804688 327.246094 264.339844 328.777344 264.339844 L 331.679688 264.339844 C 333.222656 264.339844 334.476562 264.804688 335.449219 265.738281 C 336.421875 266.671875 336.910156 267.894531 336.910156 269.417969 M 335.117188 269.570312 C 335.117188 268.566406 334.792969 267.746094 334.144531 267.105469 C 333.503906 266.46875 332.683594 266.148438 331.679688 266.148438 L 328.777344 266.148438 C 327.785156 266.148438 326.964844 266.46875 326.316406 267.105469 C 325.675781 267.746094 325.359375 268.566406 325.359375 269.570312 C 325.359375 270.5625 325.675781 271.367188 326.316406 271.984375 C 326.964844 272.605469 327.785156 272.914062 328.777344 272.914062 L 331.679688 272.914062 C 332.683594 272.914062 333.503906 272.605469 334.144531 271.984375 C 334.792969 271.367188 335.117188 270.5625 335.117188 269.570312 "/>
<path style=" stroke:none;fill-rule:nonzero;fill:rgb(0%,0%,0%);fill-opacity:1;" d="M 351.515625 269.417969 C 351.515625 270.945312 351.023438 272.214844 350.042969 273.214844 C 349.058594 274.21875 347.808594 274.722656 346.285156 274.722656 L 343.382812 274.722656 C 341.875 274.722656 340.621094 274.21875 339.628906 273.214844 C 338.648438 272.214844 338.15625 270.945312 338.15625 269.417969 C 338.15625 267.894531 338.640625 266.671875 339.613281 265.738281 C 340.597656 264.804688 341.855469 264.339844 343.382812 264.339844 L 346.285156 264.339844 C 347.828125 264.339844 349.085938 264.804688 350.058594 265.738281 C 351.03125 266.671875 351.515625 267.894531 351.515625 269.417969 M 349.722656 269.570312 C 349.722656 268.566406 349.398438 267.746094 348.75 267.105469 C 348.109375 266.46875 347.289062 266.148438 346.285156 266.148438 L 343.382812 266.148438 C 342.390625 266.148438 341.570312 266.46875 340.921875 267.105469 C 340.28125 267.746094 339.964844 268.566406 339.964844 269.570312 C 339.964844 270.5625 340.28125 271.367188 340.921875 271.984375 C 341.570312 272.605469 342.390625 272.914062 343.382812 272.914062 L 346.285156 272.914062 C 347.289062 272.914062 348.109375 272.605469 348.75 271.984375 C 349.398438 271.367188 349.722656 270.5625 349.722656 269.570312 "/>
<path style=" stroke:none;fill-rule:nonzero;fill:rgb(0%,0%,0%);fill-opacity:1;" d="M 361.503906 274.722656 L 352.550781 274.722656 L 352.550781 264.339844 L 354.355469 264.339844 L 354.355469 272.914062 L 361.503906 272.914062 L 361.503906 274.722656 "/>
<path style=" stroke:none;fill-rule:nonzero;fill:rgb(0%,0%,0%);fill-opacity:1;" d="M 373.378906 274.722656 L 370.71875 274.722656 L 365.566406 270.417969 C 365.210938 270.117188 365.035156 269.835938 365.035156 269.582031 C 365.035156 269.339844 365.210938 269.066406 365.566406 268.761719 L 370.71875 264.339844 L 373.378906 264.339844 L 367.191406 269.628906 L 373.378906 274.722656 M 364.699219 274.722656 L 362.890625 274.722656 L 362.890625 264.339844 L 364.699219 264.339844 L 364.699219 274.722656 "/>
<path style=" stroke:none;fill-rule:nonzero;fill:rgb(0%,0%,0%);fill-opacity:1;" d="M 374.816406 274.722656 L 376.625 274.722656 L 376.625 264.339844 L 374.816406 264.339844 Z M 374.816406 274.722656 "/>
<path style=" stroke:none;fill-rule:nonzero;fill:rgb(0%,0%,0%);fill-opacity:1;" d="M 388.433594 266.148438 L 384.34375 266.148438 L 384.34375 274.722656 L 382.550781 274.722656 L 382.550781 266.148438 L 378.445312 266.148438 L 378.445312 264.339844 L 388.433594 264.339844 L 388.433594 266.148438 "/>
<path style="fill-rule:evenodd;fill:rgb(93.359375%,46.655273%,46.655273%);fill-opacity:1;stroke-width:13.4844;stroke-linecap:butt;stroke-linejoin:miter;stroke:rgb(32.151794%,0%,0%);stroke-opacity:1;stroke-miterlimit:10;" d="M 947.695312 2182.109375 C 924.0625 2185.78125 877.851562 2229.296875 863.203125 2247.734375 C 855.664062 2260 813.867188 2299.257812 796.796875 2282.148438 C 777.148438 2265.859375 686.679688 2177.929688 676.328125 2167.96875 C 569.335938 2065.078125 389.414062 1909.804688 354.492188 1862.34375 C 323.203125 1831.71875 210.625 1640.742188 115.625 1548.90625 C 101.25 1535 14.570312 1412.460938 14.257812 1412.421875 C 5.625 1398.59375 82.34375 1411.953125 109.023438 1427.421875 C 207.929688 1482.460938 294.6875 1560.3125 408.828125 1506.796875 C 534.609375 1449.53125 516.640625 1298.28125 525.351562 1262.382812 C 532.65625 1205.3125 526.132812 1228.398438 565.46875 1271.796875 C 634.179688 1347.578125 643.359375 1464.335938 842.34375 1433.671875 C 935.820312 1419.375 1002.734375 1327.695312 1030 1260.742188 C 1051.328125 1195.273438 1050.234375 1188.867188 1078.125 1261.835938 C 1100.976562 1335.703125 1072.5 1421.09375 1095.585938 1502.382812 C 1104.179688 1541.40625 1200.898438 1593.515625 1311.132812 1594.648438 C 1434.726562 1590.859375 1452.890625 1552.578125 1493.164062 1540 C 1504.414062 1544.453125 1519.296875 1565.585938 1537.539062 1577.382812 C 1596.796875 1616.5625 1637.03125 1611.132812 1689.84375 1587.96875 C 1751.289062 1560.9375 1770.898438 1492.96875 1833.4375 1468.203125 C 1848.164062 1462.382812 1889.804688 1447.460938 1885.664062 1457.617188 " transform="matrix(0.1,0,0,-0.1,0,275)"/>
<path style="fill-rule:evenodd;fill:rgb(93.359375%,46.655273%,46.655273%);fill-opacity:1;stroke-width:13.4844;stroke-linecap:butt;stroke-linejoin:miter;stroke:rgb(32.151794%,0%,0%);stroke-opacity:1;stroke-miterlimit:10;" d="M 2157.265625 2565.351562 C 2172.695312 2577.5 2188.945312 2643.4375 2189.375 2666.71875 C 2189.921875 2695.3125 2201.601562 2738.75 2223.867188 2734.21875 C 2264.765625 2728.4375 2345.78125 2709.140625 2358.789062 2706.679688 C 2493.007812 2681.054688 2631.875 2674.0625 2766.289062 2647.539062 C 2885.976562 2623.945312 3029.101562 2569.140625 3109.609375 2541.601562 C 3187.929688 2515.234375 3265.625 2472.890625 3279.023438 2437.539062 C 3250.507812 2431.914062 3233.476562 2430.664062 3196.835938 2425.859375 C 3142.734375 2422.1875 3006.992188 2444.179688 2920.46875 2295.625 C 2863.789062 2174.21875 2960.9375 2095.546875 2988.984375 2069.84375 C 3049.257812 2005.46875 3037.8125 1997.773438 2933.75 2030.117188 C 2842.1875 2054.609375 2786.640625 2144.101562 2614.21875 1972.65625 C 2567.96875 1924.960938 2598.046875 1838.476562 2615.234375 1768.359375 C 2630.117188 1679.6875 2616.796875 1697.773438 2577.96875 1744.492188 C 2564.21875 1764.492188 2470.976562 1864.023438 2397.421875 1890.039062 C 2319.492188 1917.578125 2296.054688 1944.21875 2215.625 1884.257812 C 2163.164062 1845.15625 2150.585938 1771.914062 2113.984375 1738.789062 C 2112.65625 1737.578125 2067.304688 1745.117188 2061.210938 1745.078125 C 1996.679688 1744.609375 1970.546875 1717.96875 1945.117188 1669.6875 C 1915.546875 1613.554688 1913.398438 1514.296875 1907.265625 1491.835938 C 1904.453125 1475.546875 1889.492188 1454.648438 1884.804688 1454.921875 " transform="matrix(0.1,0,0,-0.1,0,275)"/>
<path style="fill-rule:evenodd;fill:rgb(85.154724%,0%,0%);fill-opacity:1;stroke-width:13.4844;stroke-linecap:butt;stroke-linejoin:miter;stroke:rgb(32.151794%,0%,0%);stroke-opacity:1;stroke-miterlimit:10;" d="M 785.234375 2196.5625 C 651.953125 2116.328125 518.164062 1945.625 423.945312 1826.796875 C 376.210938 1766.601562 335.664062 1704.609375 285.195312 1646.09375 C 270.546875 1629.101562 221.914062 1576.09375 227.5 1582.5 " transform="matrix(0.1,0,0,-0.1,0,275)"/>
<path style="fill-rule:evenodd;fill:rgb(85.154724%,0%,0%);fill-opacity:1;stroke-width:13.4844;stroke-linecap:butt;stroke-linejoin:miter;stroke:rgb(32.151794%,0%,0%);stroke-opacity:1;stroke-miterlimit:10;" d="M 810.273438 2150.390625 C 803.085938 2051.914062 726.132812 1897.96875 697.851562 1796.367188 C 669.453125 1694.375 617.265625 1594.023438 605.585938 1489.101562 C 604.609375 1480.507812 597.265625 1471.132812 596.132812 1461.640625 " transform="matrix(0.1,0,0,-0.1,0,275)"/>
<path style="fill-rule:evenodd;fill:rgb(85.154724%,0%,0%);fill-opacity:1;stroke-width:13.4844;stroke-linecap:butt;stroke-linejoin:miter;stroke:rgb(32.151794%,0%,0%);stroke-opacity:1;stroke-miterlimit:10;" d="M 860.976562 2163.125 C 853.867188 2065.703125 879.257812 1951.210938 881.40625 1852.226562 C 883.085938 1775.078125 947.65625 1527.109375 988.671875 1471.015625 " transform="matrix(0.1,0,0,-0.1,0,275)"/>
<path style="fill-rule:evenodd;fill:rgb(93.359375%,46.655273%,46.655273%);fill-opacity:1;stroke-width:13.4844;stroke-linecap:butt;stroke-linejoin:miter;stroke:rgb(32.151794%,0%,0%);stroke-opacity:1;stroke-miterlimit:10;" d="M 947.929688 2181.5625 C 963.671875 2174.609375 1040.664062 2167.226562 1071.445312 2163.476562 C 1116.601562 2156.210938 1328.632812 2134.140625 1391.171875 2188.515625 C 1450.234375 2239.921875 1442.382812 2282.109375 1436.914062 2316.953125 C 1429.335938 2363.125 1411.484375 2398.828125 1413.632812 2428.007812 C 1414.335938 2437.617188 1442.226562 2405.15625 1470.546875 2392.773438 C 1503.007812 2377.734375 1506.523438 2381.953125 1522.265625 2383.515625 C 1547.03125 2388.28125 1572.421875 2395.390625 1587.382812 2402.460938 " transform="matrix(0.1,0,0,-0.1,0,275)"/>
<path style="fill-rule:evenodd;fill:rgb(93.359375%,46.655273%,46.655273%);fill-opacity:1;stroke-width:13.4844;stroke-linecap:butt;stroke-linejoin:miter;stroke:rgb(32.151794%,0%,0%);stroke-opacity:1;stroke-miterlimit:10;" d="M 1531.914062 2144.726562 C 1534.179688 2067.1875 1605.742188 1829.453125 1661.289062 1770.898438 C 1667.382812 1764.414062 1686.132812 1747.65625 1681.054688 1752.851562 " transform="matrix(0.1,0,0,-0.1,0,275)"/>
<path style=" stroke:none;fill-rule:evenodd;fill:rgb(31.762695%,0%,0%);fill-opacity:1;" d="M 152.699219 43.382812 C 149.835938 50.394531 157.933594 47.550781 155.585938 44.265625 C 154.546875 42.816406 153.527344 41.671875 152.699219 43.382812 "/>
<path style="fill:none;stroke-width:13.4844;stroke-linecap:butt;stroke-linejoin:miter;stroke:rgb(31.762695%,0%,0%);stroke-opacity:1;stroke-miterlimit:10;" d="M 1526.992188 2316.171875 C 1498.359375 2246.054688 1579.335938 2274.492188 1555.859375 2307.34375 C 1545.46875 2321.835938 1535.273438 2333.28125 1526.992188 2316.171875 Z M 1526.992188 2316.171875 " transform="matrix(0.1,0,0,-0.1,0,275)"/>
<path style="fill-rule:evenodd;fill:rgb(85.154724%,0%,0%);fill-opacity:1;stroke-width:13.4844;stroke-linecap:butt;stroke-linejoin:miter;stroke:rgb(32.151794%,0%,0%);stroke-opacity:1;stroke-miterlimit:10;" d="M 902.1875 2143.085938 C 906.992188 2143.046875 1042.5 2101.601562 1063.59375 2096.445312 C 1145.859375 2076.445312 1239.023438 2074.6875 1324.921875 2074.0625 " transform="matrix(0.1,0,0,-0.1,0,275)"/>
<path style="fill-rule:evenodd;fill:rgb(85.154724%,0%,0%);fill-opacity:1;stroke-width:13.4844;stroke-linecap:butt;stroke-linejoin:miter;stroke:rgb(32.151794%,0%,0%);stroke-opacity:1;stroke-miterlimit:10;" d="M 1301.679688 1673.75 C 1372.617188 1673.203125 1505.117188 1594.0625 1497.8125 1598.945312 " transform="matrix(0.1,0,0,-0.1,0,275)"/>
<path style="fill-rule:evenodd;fill:rgb(85.154724%,0%,0%);fill-opacity:1;stroke-width:13.4844;stroke-linecap:butt;stroke-linejoin:miter;stroke:rgb(32.151794%,0%,0%);stroke-opacity:1;stroke-miterlimit:10;" d="M 2264.140625 2670.117188 C 2252.304688 2672.539062 2596.015625 2610.976562 2729.84375 2565.15625 C 2797.617188 2541.953125 2861.210938 2513.320312 2930.078125 2492.96875 C 2950.078125 2487.070312 3018.320312 2469.0625 3006.953125 2472.460938 " transform="matrix(0.1,0,0,-0.1,0,275)"/>
<path style="fill-rule:evenodd;fill:rgb(85.154724%,0%,0%);fill-opacity:1;stroke-width:13.4844;stroke-linecap:butt;stroke-linejoin:miter;stroke:rgb(32.151794%,0%,0%);stroke-opacity:1;stroke-miterlimit:10;" d="M 2271.484375 2618.242188 C 2264.296875 2623.554688 2471.757812 2456.914062 2548.320312 2388.867188 C 2625.195312 2320.625 2718.398438 2266.796875 2784.726562 2186.875 C 2796.289062 2172.539062 2813.789062 2163.828125 2806.757812 2169.492188 " transform="matrix(0.1,0,0,-0.1,0,275)"/>
<path style="fill-rule:evenodd;fill:rgb(85.154724%,0%,0%);fill-opacity:1;stroke-width:13.4844;stroke-linecap:butt;stroke-linejoin:miter;stroke:rgb(32.151794%,0%,0%);stroke-opacity:1;stroke-miterlimit:10;" d="M 2227.734375 2600.742188 C 2223.398438 2612.851562 2331.484375 2416.210938 2384.570312 2333.554688 C 2425.9375 2269.101562 2523.59375 1949.882812 2517.34375 1960.507812 " transform="matrix(0.1,0,0,-0.1,0,275)"/>
<path style="fill-rule:evenodd;fill:rgb(93.359375%,46.655273%,46.655273%);fill-opacity:1;stroke-width:13.4844;stroke-linecap:butt;stroke-linejoin:miter;stroke:rgb(32.151794%,0%,0%);stroke-opacity:1;stroke-miterlimit:10;" d="M 2157.96875 2565.898438 C 2144.84375 2553.828125 2090.898438 2509.960938 2069.84375 2486.40625 C 2048.203125 2463.398438 1872.617188 2308.320312 1829.84375 2328.984375 C 1798.945312 2341.835938 1766.953125 2369.765625 1726.953125 2420.976562 C 1709.179688 2443.710938 1699.023438 2490.898438 1681.367188 2513.75 C 1675.585938 2521.25 1677.070312 2462.617188 1654.960938 2441.367188 C 1649.960938 2434.453125 1636.328125 2425.9375 1622.1875 2417.929688 C 1611.757812 2411.445312 1598.554688 2407.773438 1586.289062 2402.109375 " transform="matrix(0.1,0,0,-0.1,0,275)"/>
<path style="fill-rule:evenodd;fill:rgb(93.359375%,46.655273%,46.655273%);fill-opacity:1;stroke-width:13.4844;stroke-linecap:butt;stroke-linejoin:miter;stroke:rgb(32.151794%,0%,0%);stroke-opacity:1;stroke-miterlimit:10;" d="M 1744.921875 2212.929688 C 1742.578125 2219.296875 1865.507812 1912.617188 1857.65625 1833.75 C 1856.757812 1825.078125 1853.242188 1816.5625 1853.28125 1808.007812 " transform="matrix(0.1,0,0,-0.1,0,275)"/>
<path style=" stroke:none;fill-rule:evenodd;fill:rgb(31.762695%,0%,0%);fill-opacity:1;" d="M 165.386719 39.320312 C 171.328125 43.511719 163.894531 45.640625 163.785156 41.640625 C 163.734375 39.875 163.886719 38.195312 165.386719 39.320312 "/>
<path style="fill:none;stroke-width:13.4844;stroke-linecap:butt;stroke-linejoin:miter;stroke:rgb(32.151794%,0%,0%);stroke-opacity:1;stroke-miterlimit:10;" d="M 1653.867188 2356.796875 C 1713.28125 2314.882812 1638.945312 2293.59375 1637.851562 2333.59375 C 1637.34375 2351.25 1638.867188 2368.046875 1653.867188 2356.796875 Z M 1653.867188 2356.796875 " transform="matrix(0.1,0,0,-0.1,0,275)"/>
<path style="fill-rule:evenodd;fill:rgb(85.154724%,0%,0%);fill-opacity:1;stroke-width:13.4844;stroke-linecap:butt;stroke-linejoin:miter;stroke:rgb(32.151794%,0%,0%);stroke-opacity:1;stroke-miterlimit:10;" d="M 2208.945312 2561.523438 C 2212.8125 2566.875 2130.273438 2449.921875 2117.851562 2434.023438 C 2069.335938 2372.109375 2002.8125 2319.257812 1941.015625 2271.328125 " transform="matrix(0.1,0,0,-0.1,0,275)"/>
<path style="fill-rule:evenodd;fill:rgb(85.154724%,0%,0%);fill-opacity:1;stroke-width:13.4844;stroke-linecap:butt;stroke-linejoin:miter;stroke:rgb(32.151794%,0%,0%);stroke-opacity:1;stroke-miterlimit:10;" d="M 2178.789062 1954.609375 C 2127.773438 1915 2107.109375 1839.492188 2078.125 1784.726562 " transform="matrix(0.1,0,0,-0.1,0,275)"/>
</g>
</svg>
